#!OML:ASF X:\für Bonn\!DataBase\2005_08_10_Bjorn_Final\c3d\bjorn.ASF
:FULLY-SPECIFIED
:DEGREES
776
root -0.337811 1.31503 23.8772 -470.67 -179.03 368.178
lowerback 23.2492 1.05285 -0.410068
upperback 8.31869 -0.226263 -3.7331
thorax -3.8484 -0.711898 -3.69599
lowerneck -13.5903 -6.01291 -2.10321
upperneck -3.61028 -8.57844 7.5188
head 1.63203 -4.35916 2.28585
rclavicle 2.22639e-014 2.31584e-014
rhumerus -214.156 -153.424 125.895
rradius 0.542116
rwrist 54.5956
rhand -10.087 0.0977634
rfingers 7.12502
rthumb 15.8999 -29.2695
lclavicle 2.22639e-014 2.31584e-014
lhumerus -383.634 17.6487 -311.382
lradius 8.87819
lwrist -79.2113
lhand -7.72683 -7.96552
lfingers 7.12502
lthumb 18.1717 21.2057
rfemur -24.4475 -16.4969 -11.8901
rtibia 109.188
rfoot 36.0101 13.1455
rtoes -2.56813
lfemur -36.1546 -4.76871 0.195307
ltibia 119.179
lfoot 30.3468 -9.75345
ltoes 4.8652
777
root -0.337302 1.31514 23.8769 -470.67 -179.031 368.177
lowerback 23.2068 1.05901 -0.434677
upperback 8.36426 -0.224506 -3.71337
thorax -3.77767 -0.713642 -3.66035
lowerneck -13.6758 -6.02129 -2.13213
upperneck -3.6246 -8.58778 7.52712
head 1.6446 -4.36305 2.29086
rclavicle -3.49861e-014 5.14852e-014
rhumerus -214.11 -153.29 125.966
rradius 0.55586
rwrist 54.7682
rhand -10.0681 0.125058
rfingers 7.12502
rthumb 15.9181 -29.2408
lclavicle -3.49861e-014 5.14852e-014
lhumerus -383.524 17.5295 -311.149
lradius 8.80267
lwrist -79.1039
lhand -7.68153 -7.84911
lfingers 7.12502
lthumb 18.2152 21.318
rfemur -24.4391 -16.511 -11.9018
rtibia 109.19
rfoot 35.9876 13.1379
rtoes -2.63177
lfemur -36.159 -4.76651 0.190289
ltibia 119.184
lfoot 30.3274 -9.80727
ltoes 4.6934
778
root -0.336296 1.31507 23.8765 -470.679 -179.032 368.181
lowerback 23.1893 1.06617 -0.467024
upperback 8.4015 -0.223635 -3.6911
thorax -3.72849 -0.715942 -3.61752
lowerneck -13.7751 -6.02777 -2.17843
upperneck -3.60322 -8.59062 7.53351
head 1.67208 -4.36168 2.2979
rclavicle -1.90833e-014 3.39922e-014
rhumerus -214.042 -153.148 126.021
rradius 0.526855
rwrist 54.9967
rhand -10.093 0.141261
rfingers 7.12502
rthumb 15.8941 -29.2265
lclavicle -1.90833e-014 3.39922e-014
lhumerus -383.423 17.397 -310.925
lradius 8.72761
lwrist -78.9955
lhand -7.67334 -7.7223
lfingers 7.12502
lthumb 18.2231 21.4441
rfemur -24.424 -16.5258 -11.9109
rtibia 109.193
rfoot 35.9831 13.1484
rtoes -2.63857
lfemur -36.146 -4.79547 0.186473
ltibia 119.179
lfoot 30.3076 -9.81689
ltoes 4.67974
779
root -0.335792 1.31518 23.8763 -470.704 -179.048 368.19
lowerback 23.173 1.06191 -0.48656
upperback 8.4519 -0.234472 -3.65581
thorax -3.66626 -0.724441 -3.56492
lowerneck -13.8607 -6.02584 -2.21917
upperneck -3.6006 -8.58004 7.5099
head 1.68812 -4.35455 2.29564
rclavicle -7.31528e-014 6.54002e-014
rhumerus -213.93 -153.028 126.083
rradius 0.463538
rwrist 55.2438
rhand -10.1358 0.193374
rfingers 7.12502
rthumb 15.8528 -29.1776
lclavicle -7.31528e-014 6.54002e-014
lhumerus -383.352 17.2914 -310.7
lradius 8.66164
lwrist -78.9075
lhand -7.61819 -7.62896
lfingers 7.12502
lthumb 18.2762 21.5325
rfemur -24.3811 -16.5333 -11.9119
rtibia 109.188
rfoot 35.9558 13.1814
rtoes -2.68156
lfemur -36.1073 -4.83332 0.193939
ltibia 119.173
lfoot 30.3067 -9.73572
ltoes 4.8804
780
root -0.33564 1.31558 23.8763 -470.711 -179.067 368.191
lowerback 23.1283 1.06487 -0.474207
upperback 8.51333 -0.231128 -3.64082
thorax -3.57677 -0.726226 -3.55618
lowerneck -13.9812 -6.03641 -2.216
upperneck -3.61169 -8.59734 7.49047
head 1.7049 -4.36297 2.28425
rclavicle 3.18055e-015 -3.00165e-014
rhumerus -213.87 -152.856 126.136
rradius 0.450162
rwrist 55.4709
rhand -10.2359 0.279142
rfingers 7.12502
rthumb 15.7565 -29.0995
lclavicle 3.18055e-015 -3.00165e-014
lhumerus -383.191 17.1622 -310.48
lradius 8.55276
lwrist -78.7907
lhand -7.56922 -7.49675
lfingers 7.12502
lthumb 18.3233 21.6602
rfemur -24.3682 -16.5601 -11.9061
rtibia 109.198
rfoot 35.9303 13.2504
rtoes -2.86935
lfemur -36.0959 -4.85474 0.210701
ltibia 119.169
lfoot 30.3015 -9.74207
ltoes 4.86418
781
root -0.334158 1.31604 23.876 -470.724 -179.058 368.194
lowerback 23.1005 1.07291 -0.514035
upperback 8.56586 -0.233126 -3.62903
thorax -3.50605 -0.731266 -3.51973
lowerneck -14.1516 -6.04205 -2.22419
upperneck -3.54851 -8.60614 7.4766
head 1.75595 -4.36344 2.27496
rclavicle -1.74931e-014 -1.2921e-014
rhumerus -213.789 -152.709 126.175
rradius 0.425743
rwrist 55.7356
rhand -10.2749 0.361755
rfingers 7.12502
rthumb 15.7189 -29.0199
lclavicle -1.74931e-014 -1.2921e-014
lhumerus -383.086 17.0399 -310.281
lradius 8.4906
lwrist -78.6752
lhand -7.46787 -7.35883
lfingers 7.12502
lthumb 18.4208 21.789
rfemur -24.354 -16.5823 -11.9328
rtibia 109.203
rfoot 35.9284 13.2724
rtoes -2.8768
lfemur -36.0807 -4.87475 0.201331
ltibia 119.163
lfoot 30.2939 -9.75755
ltoes 4.87885
782
root -0.333959 1.31681 23.8762 -470.735 -179.069 368.191
lowerback 23.0573 1.08086 -0.514334
upperback 8.62779 -0.226277 -3.61165
thorax -3.41671 -0.731764 -3.50209
lowerneck -14.2556 -6.04178 -2.22558
upperneck -3.56752 -8.60702 7.45678
head 1.76664 -4.36391 2.26597
rclavicle 3.33958e-014 -5.00937e-014
rhumerus -213.728 -152.544 126.238
rradius 0.426594
rwrist 55.9955
rhand -10.2593 0.41008
rfingers 7.12502
rthumb 15.7339 -28.9703
lclavicle 3.33958e-014 -5.00937e-014
lhumerus -382.934 16.9107 -310.046
lradius 8.39793
lwrist -78.5514
lhand -7.41913 -7.21937
lfingers 7.12502
lthumb 18.4677 21.924
rfemur -24.3307 -16.5852 -11.9301
rtibia 109.199
rfoot 35.9226 13.2822
rtoes -2.8832
lfemur -36.0473 -4.89354 0.208008
ltibia 119.156
lfoot 30.2829 -9.73691
ltoes 5.02266
783
root -0.332748 1.3176 23.8768 -470.751 -179.085 368.183
lowerback 23.0299 1.08486 -0.525175
upperback 8.68093 -0.22559 -3.58298
thorax -3.34519 -0.735033 -3.46473
lowerneck -14.3636 -6.04224 -2.27215
upperneck -3.55969 -8.60108 7.45817
head 1.79047 -4.35865 2.27202
rclavicle 0 6.95746e-015
rhumerus -213.661 -152.409 126.3
rradius 0.414349
rwrist 56.2822
rhand -10.2245 0.427964
rfingers 7.12502
rthumb 15.7675 -28.9498
lclavicle 0 6.95746e-015
lhumerus -382.816 16.7937 -309.829
lradius 8.29399
lwrist -78.4074
lhand -7.36555 -7.08437
lfingers 7.12502
lthumb 18.5192 22.0541
rfemur -24.3076 -16.5856 -11.917
rtibia 109.201
rfoot 35.917 13.2308
rtoes -2.76112
lfemur -36.0129 -4.90681 0.230312
ltibia 119.144
lfoot 30.2581 -9.75824
ltoes 5.01147
784
root -0.332432 1.31762 23.8758 -470.763 -179.084 368.201
lowerback 22.9971 1.08385 -0.54472
upperback 8.74508 -0.235772 -3.57327
thorax -3.25975 -0.744497 -3.44023
lowerneck -14.5676 -6.03711 -2.23521
upperneck -3.48913 -8.60082 7.39858
head 1.84441 -4.35532 2.23931
rclavicle -3.02153e-014 3.65764e-014
rhumerus -213.568 -152.248 126.337
rradius 0.390003
rwrist 56.4915
rhand -10.1313 0.427592
rfingers 7.12502
rthumb 15.8572 -28.9431
lclavicle -3.02153e-014 3.65764e-014
lhumerus -382.681 16.6755 -309.633
lradius 8.2081
lwrist -78.3163
lhand -7.37528 -6.98647
lfingers 7.12502
lthumb 18.5099 22.1529
rfemur -24.2841 -16.6206 -11.9435
rtibia 109.208
rfoot 35.8606 13.3309
rtoes -3.01135
lfemur -36.0088 -4.94974 0.213117
ltibia 119.145
lfoot 30.2664 -9.74699
ltoes 5.06998
785
root -0.331498 1.31841 23.8759 -470.764 -179.095 368.206
lowerback 22.9684 1.08736 -0.556509
upperback 8.78167 -0.234651 -3.55451
thorax -3.20566 -0.746311 -3.41326
lowerneck -14.6708 -6.0399 -2.24017
upperneck -3.47142 -8.6037 7.37054
head 1.86719 -4.35531 2.22766
rclavicle -1.90833e-014 6.97734e-014
rhumerus -213.579 -152.122 126.429
rradius 0.441875
rwrist 56.6757
rhand -9.98801 0.454536
rfingers 7.12502
rthumb 15.9952 -28.9051
lclavicle -1.90833e-014 6.97734e-014
lhumerus -382.598 16.5203 -309.441
lradius 8.13796
lwrist -78.1925
lhand -7.40832 -6.90638
lfingers 7.12502
lthumb 18.4781 22.236
rfemur -24.2709 -16.6395 -11.9399
rtibia 109.21
rfoot 35.8528 13.338
rtoes -3.05267
lfemur -36.007 -4.9515 0.233812
ltibia 119.141
lfoot 30.2685 -9.76022
ltoes 5.16009
786
root -0.330859 1.31905 23.8762 -470.772 -179.109 368.196
lowerback 22.9304 1.09764 -0.550252
upperback 8.83632 -0.223408 -3.53897
thorax -3.12657 -0.744375 -3.40266
lowerneck -14.8407 -6.04992 -2.24681
upperneck -3.39142 -8.61684 7.34028
head 1.92328 -4.35758 2.21219
rclavicle -9.54166e-015 2.16675e-014
rhumerus -213.548 -151.96 126.501
rradius 0.425648
rwrist 56.825
rhand -9.93236 0.461263
rfingers 7.12502
rthumb 16.0488 -28.8941
lclavicle -9.54166e-015 2.16675e-014
lhumerus -382.454 16.3669 -309.248
lradius 8.03918
lwrist -78.133
lhand -7.50656 -6.908
lfingers 7.12502
lthumb 18.3836 22.2433
rfemur -24.2617 -16.6367 -11.9243
rtibia 109.216
rfoot 35.8351 13.2858
rtoes -2.98629
lfemur -35.9848 -4.95443 0.246765
ltibia 119.138
lfoot 30.2296 -9.8356
ltoes 5.0236
